<svg width="18" height="23" viewBox="0 0 18 23" fill="none" xmlns="http://www.w3.org/2000/svg">
<path d="M17.8909 7.40925C17.8375 7.28715 17.7629 7.17553 17.6704 7.07963L10.9204 0.329625C10.8245 0.23713 10.7128 0.162463 10.5907 0.109125C10.557 0.0933749 10.521 0.0843749 10.485 0.0719999C10.3909 0.0399669 10.2929 0.0206709 10.1936 0.014625C10.17 0.012375 10.1486 0 10.125 0H2.25C1.00912 0 0 1.00912 0 2.25V20.25C0 21.4909 1.00912 22.5 2.25 22.5H15.75C16.9909 22.5 18 21.4909 18 20.25V7.875C18 7.85138 17.9876 7.83 17.9854 7.80525C17.9799 7.70593 17.9606 7.60786 17.928 7.51388C17.9168 7.47787 17.9066 7.443 17.8909 7.40925ZM14.1593 6.75H11.25V3.84075L14.1593 6.75ZM2.25 20.25V2.25H9V7.875C9 8.17337 9.11853 8.45952 9.3295 8.6705C9.54048 8.88147 9.82663 9 10.125 9H15.75L15.7523 20.25H2.25Z" fill="#0D99FF"/>
<path d="M4.5 11.25H13.5V13.5H4.5V11.25ZM4.5 15.75H13.5V18H4.5V15.75ZM4.5 6.75H6.75V9H4.5V6.75Z" fill="#0D99FF"/>
</svg>
