<svg width="18" height="23" viewBox="0 0 18 23" fill="none" xmlns="http://www.w3.org/2000/svg">
<path d="M10.9204 0.336951C10.8161 0.229952 10.6921 0.145096 10.5556 0.0872682C10.4191 0.0294402 10.2728 -0.000217866 10.125 1.20482e-06H2.25C1.00912 1.20482e-06 0 1.03155 0 2.3V20.7C0 21.9684 1.00912 23 2.25 23H15.75C16.9909 23 18 21.9684 18 20.7V8.05C18.0002 7.89895 17.9712 7.74936 17.9146 7.60982C17.8581 7.47028 17.775 7.34356 17.6704 7.23695L10.9204 0.336951ZM2.25 2.3H9.65925L15.75 8.5261L15.7522 19.0762L12.8632 16.123C13.257 15.4387 13.5 14.6498 13.5 13.8C13.5 11.2631 11.4817 9.2 9 9.2C6.51825 9.2 4.5 11.2631 4.5 13.8C4.5 16.3369 6.51825 18.4 9 18.4C9.83137 18.4 10.6031 18.1516 11.2725 17.7491L14.1592 20.7H2.25V2.3ZM9 16.1C7.75912 16.1 6.75 15.0684 6.75 13.8C6.75 12.5315 7.75912 11.5 9 11.5C10.2409 11.5 11.25 12.5315 11.25 13.8C11.25 15.0684 10.2409 16.1 9 16.1Z" fill="#0D99FF"/>
</svg>
