<svg width="24" height="20" viewBox="0 0 24 20" fill="none" xmlns="http://www.w3.org/2000/svg">
<path d="M21.3471 6.19999L23.1859 4.36116L21.5224 2.69763L19.513 4.70587C18.2777 3.96469 16.8377 3.5294 15.2941 3.5294C10.7541 3.5294 7.05884 7.22351 7.05884 11.7647C7.05884 16.3059 10.7541 20 15.2941 20C19.8341 20 23.5294 16.3059 23.5294 11.7647C23.5285 9.70119 22.7492 7.71399 21.3471 6.19999ZM15.2941 17.647C12.0506 17.647 9.41178 15.0082 9.41178 11.7647C9.41178 8.52116 12.0506 5.88234 15.2941 5.88234C18.5377 5.88234 21.1765 8.52116 21.1765 11.7647C21.1765 15.0082 18.5377 17.647 15.2941 17.647Z" fill="#0D99FF"/>
<path d="M14.1176 8.23529H16.4706V12.9412H14.1176V8.23529ZM12.9412 0H17.6471V2.35294H12.9412V0ZM1.17647 5.88235H5.88235V8.23529H1.17647V5.88235ZM1.17647 15.2941H5.88235V17.6471H1.17647V15.2941ZM0 10.5882H4.69412V12.9412H0V10.5882Z" fill="#0D99FF"/>
</svg>
