<svg width="23" height="20" viewBox="0 0 23 20" fill="none" xmlns="http://www.w3.org/2000/svg">
<path d="M1.11111 1.11111V6.66667H3.33333V2.22222H7.77778V0H2.22222C1.92754 0 1.64492 0.117063 1.43655 0.325437C1.22817 0.533811 1.11111 0.816426 1.11111 1.11111ZM21.1111 6.66667V1.11111C21.1111 0.816426 20.994 0.533811 20.7857 0.325437C20.5773 0.117063 20.2947 0 20 0H14.4444V2.22222H18.8889V6.66667H21.1111ZM18.8889 17.7778H14.4444V20H20C20.2947 20 20.5773 19.8829 20.7857 19.6746C20.994 19.4662 21.1111 19.1836 21.1111 18.8889V13.3333H18.8889V17.7778ZM7.77778 20V17.7778H3.33333V13.3333H1.11111V18.8889C1.11111 19.1836 1.22817 19.4662 1.43655 19.6746C1.64492 19.8829 1.92754 20 2.22222 20H7.77778ZM0 8.88889H22.2222V11.1111H0V8.88889Z" fill="#0D99FF"/>
</svg>
