<svg width="14" height="12" viewBox="0 0 14 12" fill="none" xmlns="http://www.w3.org/2000/svg">
<path d="M0.666667 0.666667V4H2V1.33333H4.66667V0H1.33333C1.15652 0 0.986953 0.0702379 0.861929 0.195262C0.736905 0.320286 0.666667 0.489856 0.666667 0.666667ZM12.6667 4V0.666667C12.6667 0.489856 12.5964 0.320286 12.4714 0.195262C12.3464 0.0702379 12.1768 0 12 0H8.66667V1.33333H11.3333V4H12.6667ZM11.3333 10.6667H8.66667V12H12C12.1768 12 12.3464 11.9298 12.4714 11.8047C12.5964 11.6797 12.6667 11.5101 12.6667 11.3333V8H11.3333V10.6667ZM4.66667 12V10.6667H2V8H0.666667V11.3333C0.666667 11.5101 0.736905 11.6797 0.861929 11.8047C0.986953 11.9298 1.15652 12 1.33333 12H4.66667ZM0 5.33333H13.3333V6.66667H0V5.33333Z" fill="white"/>
</svg>
